<svg viewBox="0 0 800 800" fill="none" xmlns="http://www.w3.org/2000/svg">
  <g stroke="#8ed4e8" stroke-width="0.9">
    <!-- Grid -->
    <g stroke-opacity="0.4">
      <line x1="0" y1="100" x2="800" y2="100"/><line x1="0" y1="200" x2="800" y2="200"/><line x1="0" y1="300" x2="800" y2="300"/><line x1="0" y1="400" x2="800" y2="400"/><line x1="0" y1="500" x2="800" y2="500"/><line x1="0" y1="600" x2="800" y2="600"/><line x1="0" y1="700" x2="800" y2="700"/>
      <line x1="100" y1="0" x2="100" y2="800"/><line x1="200" y1="0" x2="200" y2="800"/><line x1="300" y1="0" x2="300" y2="800"/><line x1="400" y1="0" x2="400" y2="800"/><line x1="500" y1="0" x2="500" y2="800"/><line x1="600" y1="0" x2="600" y2="800"/><line x1="700" y1="0" x2="700" y2="800"/>
    </g>
    <!-- Gear cluster - large -->
    <circle cx="620" cy="180" r="95"/><circle cx="620" cy="180" r="70"/><circle cx="620" cy="180" r="28"/>
    <line x1="620" y1="85" x2="620" y2="62"/><line x1="620" y1="275" x2="620" y2="298"/><line x1="525" y1="180" x2="502" y2="180"/><line x1="715" y1="180" x2="738" y2="180"/>
    <line x1="578" y1="142" x2="558" y2="122"/><line x1="662" y1="218" x2="682" y2="238"/><line x1="578" y1="218" x2="558" y2="238"/><line x1="662" y1="142" x2="682" y2="122"/>
    <!-- Gear cluster - medium -->
    <circle cx="480" cy="320" r="68"/><circle cx="480" cy="320" r="48"/><circle cx="480" cy="320" r="18"/>
    <line x1="480" y1="252" x2="480" y2="232"/><line x1="480" y1="388" x2="480" y2="408"/><line x1="412" y1="320" x2="392" y2="320"/><line x1="548" y1="320" x2="568" y2="320"/>
    <line x1="446" y1="286" x2="430" y2="270"/><line x1="514" y1="354" x2="530" y2="370"/><line x1="446" y1="354" x2="430" y2="370"/><line x1="514" y1="286" x2="530" y2="270"/>
    <!-- Gear cluster - small -->
    <circle cx="680" cy="380" r="42"/><circle cx="680" cy="380" r="28"/><circle cx="680" cy="380" r="10"/>
    <line x1="680" y1="338" x2="680" y2="322"/><line x1="680" y1="422" x2="680" y2="438"/><line x1="638" y1="380" x2="622" y2="380"/><line x1="722" y1="380" x2="738" y2="380"/>
    <!-- Wireframe cube - large -->
    <path d="M 340 420 L 520 360 L 520 520 L 340 580 L 160 520 L 160 360 Z"/>
    <path d="M 340 420 L 340 580 M 520 360 L 520 520 M 160 360 L 160 520"/>
    <path d="M 340 420 L 160 360 M 520 360 L 340 420 M 520 520 L 340 580 M 160 520 L 340 580"/>
    <path d="M 340 420 L 340 500 M 340 500 L 340 580"/>
    <path d="M 430 390 L 430 470 M 430 470 L 430 550"/>
    <path d="M 250 450 L 250 530"/>
    <path d="M 340 500 L 430 470 L 430 550 L 340 580 L 250 530 L 250 450 Z"/>
    <line x1="340" y1="500" x2="430" y2="470"/><line x1="430" y1="470" x2="430" y2="550"/><line x1="430" y1="550" x2="340" y2="580"/><line x1="340" y1="580" x2="250" y2="530"/><line x1="250" y1="530" x2="250" y2="450"/><line x1="250" y1="450" x2="340" y2="500"/>
    <line x1="340" y1="420" x2="430" y2="390"/><line x1="430" y1="390" x2="430" y2="470"/><line x1="520" y1="360" x2="430" y2="390"/><line x1="520" y1="520" x2="430" y2="550"/><line x1="160" y1="360" x2="250" y2="450"/><line x1="160" y1="520" x2="250" y2="530"/>
    <!-- Dimension lines -->
    <line x1="160" y1="620" x2="520" y2="620"/><path d="M160 620 v10 M520 620 v10" stroke-linecap="round"/>
    <circle cx="160" cy="630" r="5" fill="none"/><circle cx="520" cy="630" r="5" fill="none"/>
    <line x1="540" y1="360" x2="600" y2="360"/><path d="M540 360 h-10 M600 360 h10" stroke-linecap="round"/>
    <circle cx="530" cy="368" r="5" fill="none"/><circle cx="610" cy="368" r="5" fill="none"/>
    <!-- Crosshairs -->
    <circle cx="340" cy="500" r="8" fill="none"/><circle cx="430" cy="470" r="6" fill="none"/>
    <!-- Construction lines -->
    <g stroke-dasharray="8 6" stroke-opacity="0.6">
      <circle cx="480" cy="320" r="120" fill="none"/>
      <line x1="480" y1="320" x2="620" y2="180"/>
    </g>
  </g>
</svg>
