<svg viewBox="0 0 800 800" fill="none" xmlns="http://www.w3.org/2000/svg">
  <g stroke="#8ed4e8" stroke-width="0.9">
    <!-- Grid -->
    <g stroke-opacity="0.4">
      <line x1="0" y1="100" x2="800" y2="100"/><line x1="0" y1="200" x2="800" y2="200"/><line x1="0" y1="300" x2="800" y2="300"/><line x1="0" y1="400" x2="800" y2="400"/><line x1="0" y1="500" x2="800" y2="500"/><line x1="0" y1="600" x2="800" y2="600"/><line x1="0" y1="700" x2="800" y2="700"/>
      <line x1="100" y1="0" x2="100" y2="800"/><line x1="200" y1="0" x2="200" y2="800"/><line x1="300" y1="0" x2="300" y2="800"/><line x1="400" y1="0" x2="400" y2="800"/><line x1="500" y1="0" x2="500" y2="800"/><line x1="600" y1="0" x2="600" y2="800"/><line x1="700" y1="0" x2="700" y2="800"/>
    </g>
    <!-- Large gear -->
    <circle cx="280" cy="380" r="140"/><circle cx="280" cy="380" r="110"/><circle cx="280" cy="380" r="45"/>
    <line x1="280" y1="240" x2="280" y2="200"/><line x1="280" y1="520" x2="280" y2="560"/><line x1="140" y1="380" x2="100" y2="380"/><line x1="420" y1="380" x2="460" y2="380"/>
    <line x1="218" y1="302" x2="188" y2="272"/><line x1="342" y1="458" x2="372" y2="488"/><line x1="218" y1="458" x2="188" y2="488"/><line x1="342" y1="302" x2="372" y2="272"/>
    <line x1="253" y1="253" x2="230" y2="230"/><line x1="307" y1="507" x2="330" y2="530"/><line x1="253" y1="507" x2="230" y2="530"/><line x1="307" y1="253" x2="330" y2="230"/>
    <!-- Dimension lines - gear -->
    <line x1="280" y1="200" x2="280" y2="560"/><path d="M280 200 v-18 M280 560 v18" stroke-linecap="round"/>
    <line x1="100" y1="380" x2="460" y2="380"/><path d="M100 380 h-18 M460 380 h18" stroke-linecap="round"/>
    <circle cx="280" cy="182" r="6" fill="none"/><circle cx="280" cy="578" r="6" fill="none"/><circle cx="82" cy="380" r="6" fill="none"/><circle cx="478" cy="380" r="6" fill="none"/>
    <!-- Second gear (smaller) -->
    <circle cx="520" cy="280" r="75"/><circle cx="520" cy="280" r="55"/><circle cx="520" cy="280" r="22"/>
    <line x1="520" y1="205" x2="520" y2="178"/><line x1="520" y1="355" x2="520" y2="382"/><line x1="445" y1="280" x2="418" y2="280"/><line x1="595" y1="280" x2="622" y2="280"/>
    <line x1="498" y1="258" x2="478" y2="238"/><line x1="542" y1="302" x2="562" y2="322"/><line x1="498" y1="302" x2="478" y2="322"/><line x1="542" y1="258" x2="562" y2="238"/>
    <!-- Wireframe cube -->
    <path d="M 120 580 L 260 520 L 260 640 L 120 700 L -20 640 L -20 520 Z"/>
    <path d="M 120 580 L 120 700 M 260 520 L 260 640 M -20 520 L -20 640"/>
    <path d="M 120 580 L -20 520 M 260 520 L 120 580 M 260 640 L 120 700 M -20 640 L 120 700"/>
    <path d="M 120 580 L 120 640 M 120 640 L 120 700"/>
    <line x1="190" y1="550" x2="190" y2="610"/><line x1="50" y1="610" x2="50" y2="670"/>
    <!-- Construction / sketch lines -->
    <g stroke-dasharray="8 6" stroke-opacity="0.6">
      <circle cx="280" cy="380" r="78"/>
      <line x1="280" y1="380" x2="520" y2="280"/>
    </g>
    <!-- Dimension block -->
    <line x1="50" y1="720" x2="350" y2="720"/><path d="M50 720 v10 M350 720 v10" stroke-linecap="round"/>
    <circle cx="50" cy="730" r="5" fill="none"/><circle cx="350" cy="730" r="5" fill="none"/>
  </g>
</svg>
